<?xml version="1.0" standalone="no"?><!DOCTYPE svg PUBLIC "-//W3C//DTD SVG 1.1//EN" "http://www.w3.org/Graphics/SVG/1.1/DTD/svg11.dtd"><svg t="1497843347910" class="icon" style="" viewBox="0 0 1024 1024" version="1.1" xmlns="http://www.w3.org/2000/svg" p-id="2358" xmlns:xlink="http://www.w3.org/1999/xlink" width="200" height="200"><defs><style type="text/css"></style></defs><path d="M951.054353 6.721734 72.945647 6.721734c-36.563135 0-66.223913 29.634975-66.223913 66.211012l0 878.095804c0 36.588938 29.660779 66.249717 66.223913 66.249717l878.108706 0c36.563135 0 66.223913-29.660779 66.223913-66.249717L1017.278266 72.932745C1017.278266 36.356709 987.617488 6.721734 951.054353 6.721734zM638.319567 593.912259l0 230.590299L384.983747 824.502558l1.432078-229.854907L221.57208 594.64765l290.440821-280.700113 295.433741 277.823057L638.319567 593.912259zM824.502558 291.627769 199.497442 291.627769l0-92.143228 625.005115 0L824.502558 291.627769z" p-id="2359" fill="#337ab7"></path></svg>