<?xml version="1.0" standalone="no"?><!DOCTYPE svg PUBLIC "-//W3C//DTD SVG 1.1//EN" "http://www.w3.org/Graphics/SVG/1.1/DTD/svg11.dtd"><svg t="1497852051245" class="icon" style="" viewBox="0 0 1024 1024" version="1.1" xmlns="http://www.w3.org/2000/svg" p-id="2747" xmlns:xlink="http://www.w3.org/1999/xlink" width="200" height="200"><defs><style type="text/css"></style></defs><path d="M169.602769 478.55426l296.92355-303.292608c20.189831-20.62269 53.384861-20.62269 73.574692 0l296.92355 303.292608c31.902594 32.586163 8.815783 87.496773-36.787858 87.496773L206.390627 566.051033C160.78801 566.051033 137.701199 511.140423 169.602769 478.55426z" p-id="2748" fill="#337ab7"></path><path d="M651.809209 990.450906 354.821191 990.450906c-1.130753 0-2.046612-0.915859-2.046612-2.046612L352.774579 566.051033 653.855822 566.051033 653.855822 988.404294C653.855822 989.535047 652.938939 990.450906 651.809209 990.450906z" p-id="2749" fill="#337ab7"></path><path d="M921.66324 110.771873 84.966137 110.771873c-0.564865 0-1.023306-0.458441-1.023306-1.023306L83.942831 34.571377c0-0.564865 0.458441-1.023306 1.023306-1.023306l836.69608 0c0.564865 0 1.023306 0.458441 1.023306 1.023306l0 75.176167C922.686547 110.313431 922.228105 110.771873 921.66324 110.771873z" p-id="2750" fill="#337ab7"></path></svg>